<mxfile host="app.diagrams.net" modified="2023-11-06T18:46:12.079Z" agent="Mozilla/5.0 (Windows NT 10.0; Win64; x64) AppleWebKit/537.36 (KHTML, like Gecko) Chrome/118.0.0.0 Safari/537.36" etag="_8vSgz2oIUgL18MsilUV" version="22.0.8" type="device">
  <diagram name="PÃ¡gina-1" id="nhhNZJBtqdAloHWBc4dl">
    <mxGraphModel dx="790" dy="788" grid="1" gridSize="10" guides="1" tooltips="1" connect="1" arrows="1" fold="1" page="1" pageScale="1" pageWidth="827" pageHeight="1169" math="0" shadow="0">
      <root>
        <mxCell id="0" />
        <mxCell id="1" parent="0" />
        <mxCell id="xguzesm__UQEx_N3slbm-1" value="" style="shape=image;verticalLabelPosition=bottom;labelBackgroundColor=default;verticalAlign=top;aspect=fixed;imageAspect=0;image=data:image/png,iVBORw0KGgoAAAANSUhEUgAAAtIAAABSCAYAAAB5RTNbAAAAAXNSR0IArs4c6QAAAARnQU1BAACxjwv8YQUAAAAJcEhZcwAADsMAAA7DAcdvqGQAAFuLSURBVHhe7Z0HXFRX9sd/zCBFUNFoLCgQBBRjRyNKLKiYaAyWxBKNvce6rqhR/wajxrLGmGISorFlxbAaXWMkYAkoUlRckCKIUqRIUWAQQdrM+d8pVKcwMERM7tcPybxy7z33tHvezHszesQAh8PhcDgcDofD0QqB4v8cDofD4XA4HA5HC3ghzeFwOBwOh8Ph1AFeSHM4HA6Hw+FwOHWAF9IcDofD4XA4HE4d4IU0h8PhcDgcDodTB3ghzeFwOBwOh8Ph1AFeSHM4HA6Hw+FwOHWAF9IcDofD4XA4HE4d4IX0C+EpEqPiIZIoNhsVRUiLuIOMFy3b00RExYvQKFXEeekpfBCO2ylFii3l1OYcDqcaRWmIuJPRKPLW08QoxNdxkalPW63RRa5/wXovSovAnRe+aDYsf6pPvGTovJAuSQ/EwdVj0H3id5XFmOgGvl06EwtX/wMLJozCe5/8jjSx4lhjQvII139cj9nvv48pU6dhntseHDmyHft9CxUn1BcxUvy+wLw3XkO3yR6ILVPsbiTk3T6BNS42sBmyBVdfVP0gToHfF/PwxmvdMNkjFg2uInEcdg0yRtvR3yC6WLGP89dGkoyDcwZi4IKjqi8Ya3MOh1NBHm6fWAMXGxsM2XIVL/LyS5zihy/mvYHXuk2Gh5aLTH3aao1Ocv0L1nvebZxY4wIbmyHY8sIWzYblT/WJlxTdFtJFcbh25TZCLl7CvScSyH57XJKCfy+ciwt9t+P7vV/gwIkd6H5+BibtDEPjqlsKcG3TaMw8Z46VB/8Dr58PYKNzIU5s+gy+6bqq+oXo5LwU84e1RmP8YfYWvabAbaK9lrJJkBMehnidqagTnJfOx7DWJPefBkaS6oMrpQtx7NhHeN1QsfNviiQnHGE6M2QjRmCB+UeCEXxgFtpVZMAafqz0HM5LiyQH4WHxaDjvboFeU9ww0f7PyVvqEHZyxtL5w9C6DotMfdpqjU5y/QvWe4temOI2EfaNcUHXEX+qT7yk6HaJMLLD8Klz4dqvZUXHZZEHsde7DZxHmcv3GfXBvBk9Ef7Vv/CrSHZK46DoMg4eSkTfD+ehj5lUUhNYj9mEf//rPbTRqZaEaNWyhe4/CtAJApiamkBPsVUrCm9i36YfEafLC1VhK7Rs8edoqDCpJWb+9C+8pVsjv4QU4ua+TfhRp4ZsvDS16I1enYwUWwwlfvzcOZyXlsKb+7Dpx7iG/YRLYApTE62yZ4MhbNUSdU2h9WmrNbrI9S9Y7wJTUzQSszcYf6pPvIQ0gGr00ES/ieI1q08jIhBbqgdBxUgCtO31OtrlBsP/f43oPWk9AxjoP4HPF9twqeIdaAHavP0BxpoLFdsKitIRFeiHK6FJyK/tx77iXMTfCEBQRBqKnitVS5Addx3+l/1xIz5XfbKXpCP8og9+/90HV2NyIWH/0sMuwuf33+EbnIACxWkoSEZE7CN2tASZ0UEIis5irzSjp6enpJAWIzchFAFXQxCbVdmL5FEw9n04DbuvJyH8gg/8oqTjySlKj0Kg3xWEJuVX7NOEODceNwKCEJFWJHWj59C2z4Jk5nuP2JklmYgOCkK0QnZJejgu+vyO332uIqXndEy1y0aYTKe+CE6o0CCK0iIRk8nai0VIDA1CWHL5sRJk3QlCQHgaKz9roNI3CpESGYtH4iI8jLiOmOxyH1OuWzkS5CXcwJWrt5CYm4309ErZ1KFKT6r0Ib2lKXjfh5i2+zqSwi/Axy8K0tNkvND5SJCfGI0ENrA4Jw4hrM+43OffUxTnJiA04CpCYp/3cUleAm5cuYpbibnITk+vjI8q91Sq9OOKcyTIjQ2Qxdjv7M/n2l3kSU/Iv49AX6kfBSA2t1w5urdnQVoErl0NRkxWMTNdPJLyypAeLo95n6sxkA4tSQ+T+7RvMKq4MKMI6VGB8LsSiqRaJStVdlXhV5J8JEYnMN8QIycuBFdD4lDdRFr2x1BpMymq/FFlvpPgUfA+fDhtN64nheOCjx+iyp27JBtx1/1x2f8G4nOrZ12VsaIWljtZ/qyOutxeF39QZ0/me/E3EBAUAWUptCQ7Dtf9L8P/RjxqTJehvq3qcevm07rN9cr0zmBrbkJoAPPJWDwfinlIuHEFV28lIjc7HbURW6X+pGumYviqa0uMPDB1tLYUIDmCxRFrUpIZjaCg6OfnpPPcU1efqAmrUWqVr2ozx8ZJg19jCIyNYSi5j+g7lRrREwghhAg5Oc8vii8Mw+FY4eaMJtd3YkwfJ8z/yh8p0jq/5WhMGNFUfg5ziAzfbVi42gP+EaE46TYYtk7r4JulzonYUhL5A2aOmocfwpIRe3YTlnvEVCZU8X0c/dAR4/eG41FGCHaN7gIn96AaQVQFQStYWebAc7Er5v0QxfoRoKV5G9z9ZjpcV51Acmk2bhxegWE2dhi1zROHFr+Nd6bNwDt9usP127ssNLREdB37Zk3COq9IpMSdx9oh3eDifhlZEglED3PQ/NUWIEkxCkQi5BWyWUky4LttIVZ7+CMi9CTcBtvCaZ0vO1/Rn1IKEfnDTIya9wNLKLE4u2k5PGKqZCot+5Rk38DhFcNgYzcK2zwPYfHb72DajHfQp7srvr0rZiq0gmWOJxa7MptEsXEELWHe5i6+me6KVSeSUSq6Da/1b8HWZgg+8TqFzdM/wKy572Gg/QD8w/smji11xfsLluIDJ3sM3nRNsdCr8o0yZN88ilXDbWDrsgUeuydh8MBBeGPmYWTmqNKttL8SRH4zFys8k1FWfA/H5wzC+weTNFxkKddTxiP1+pCIHiKn+atoQRIUF4ggyitk47zY+YhTruDr+QNg2W0avj7uDpe+jnAZOQjdbAZj85Xyj7JEuL5vFiat80JkShzOrx2Cbi7uuKxwjJLIbzB3hSeSy4px7/gcDHr/IJJKRAj/eR1G2XRW3FOpxI+fZtc4RwCTV4wRf2AB3h33Gf7XsgNMpJmzaVs0C/0Se24I8Yp0h8pYkUmjvT0Lo3Fk8TuYscsX0ayQ//IDB1h3G4dvYyRoZWWJHM/FcGUxI3dhc7S5+w2mu67CiWR5lEsyfLFt4Wp4+Ecg9KQbBts6YZ1vFpuxMiSq7VqmzK+8Eeb3NeYPsES3aV/juLsL+jq6YOSgbrAZvBlXRNr2J49npTaTKUmFP2Y8Up/vJCI8zGmOV1sQJMUFEInyIE1T4vtH8aHjeOwNf4SMkF0Y3cUJ7kGFGnOHVqjN7dr7g1p7Fkbih5mj2JoQhuTYs9i03AOVKVSM+0c/hOP4vQh/lIGQXaPRxckdbLpy1LZVN24dfFrHuV4Vouv7MGvSOnhFpiDu/FoM6eYC98sKXZVE4pu5K+CZXIbie8cxZ9D7OCh3MhVo0F8VdL+2sDi6cRgrhtnAbtQ2eB5ajLffmYYZ7/RBd9dvUeGSOs89dfUJZQg05KvS2s2xMUM6p4i855uT0Yhv6KGYSJx5gqa01afWb39N0c+kxwvozp7h1Ezfkj66XCRr0Xh4Sne81tAICyPS0xNQM7txtPm/90kmNkM6l+nO6yhIIbY49UtyNmhCPTbcpFL5rucpuEZuPa1o5umc8h10YbElGXR1o+BiorLYz2iAcW/aHCbtoZTC/q8XGfXeTLJNVZTdo50Djchm1VViXTCKKXBNFzJ6YxvdKZMeT6A9bxqQqcMyOhMvPUNEv3zYlgwdd9Bd6XE1FPw0noybTyavAumWiHyW2JHdsj+Y1HIKgtzodYN2NOl4OjHzUtb3b5Gx+XzylulETJknppPzuiDmBfLt1C+dyaBJD9pwU/WECq65UU+rmVSpogu02NKAuroFs5nVrc+yhD30poEpOSw7Q3IV/EIftjUkxx13SaaieztpoJENrboq1yAVB9KaLkb0xrY7suPijG/JxbApDVh/hdKlO4rDaXPfJtTccS1dSJXbKnKLAxlaLKGLTDD1viGmZCazYdOetPJCFj2J9adLEYnkrU63xUHk1r03rQuRe584y4t27Y9W7Wca9KRJH8yQ9JaxOc2XG7IRzIepPGgNdW3Snpw3e1Myk7ngzgGaYC4kg76bKZw1FPksITu7ZfRH5YDk9roBtZt0nNLFxRTk1p16rwuRx684i7x27ado6YDiTPpulCE1n+xVIWt1P2YoOacsZhcNatqBxXKufIc4jQ4tWUO/50s3NMSK1vPPpz9Wdac+boEV/RUHryV7w67kJk0czGr3dg4kI5tVVOnCa6iL0Ru0TZoEmPwnpjvTukoD0pfOBtSkxwZSHTbK7PqI0lX6VQEFrelKTdo702bvZBarLLcfmEDmQgPquzlchZ9o6E+FzdT6o8Z8l0Xfv2VM5vO9FWOWUexnA8i4PM+WhtH/9TKi3pvDZPbQGCsqKaCfxhtX+Iza3K6tP6i1ZwFdc+tJVjNPU2UKXUyWBgpfKYulzwYYV8yvNOz/qJdRuVwa2qobVxpvWsZ0Q+R66Ryq6p0lBlpiZ0fLKhMD86vXyaDdJDqeLmaqd6PuvdeRXGwxZXntov2yxKACtfpjFPxE442b02T5oqnztYX1SAl73iQDUwdadiZetuaLfvmQ2ho60g6Zg+s699TDJ1R2qiFfaZxj46bh35F+dTK+Orkdzpm7MMphBKYucse+81EoNO0Lx16N7ekuE9hP/hcuRYfhl83j0SnzHLa+Nwjjvopk13TsIs3/DHzS4uC9dwd27NiBXccK2FXfp5jd30TeXAlPfb7DkfvdMcy5pWKPISws26P8ZhGh7RIcC/wZK21TceXIbhwMzIak+BmKtLwCr4bQBCZNBTDpOQpvWxuwHSbsCrgj9PJya3zsqgGRNw6yq+jOvXqj/D35pv2nYaJ9Ns57nke2Yl8lhfA/44O0OG/sZfrZsWMXjhW4wP3T2VCtoqfw+e4I7ncfhkoVWcCyfbmG6tKnVAUmaCowQc9Rb0OuAlvYdNRDXm5urd6VFzRrBlOhAawd+qGdVBQDW3SxMoSehQOczPXZDn1YWZpD70kuRKxD9b4hgKmJMevTASMGt0GzLkMxolMwDqnTrX5HdLVOwd6xTpi+9SSihO9h7Ufd2KiqUK8nbfXx4ufDRpF+miVsA6fxLujEZG5qPxufLuwNigrA1cwceB88geTOvdC7ckBMm2iP7POeOJ+tj45drZGydyycpm/FySgh3lv7EbpJBxSYsvhQ8lFwVZScI7SbhUVvFeHsDz8jhcWn+O4JhLSbjOGm7KCmWNF2/nnn8f2/8zFglENFf8LmzWp/L2ahP874pCHOe6/Mfjt2HUOBizs+nd2fZQNVKLFrDyNcVelXAhgbG0LYxgnjXTrBgElqP/tTLOxNiAq4ikyJtv2ptplaf9Q63wlhu+QYAn9eCdvUKziy+yACsyUofib9fEL7WFGF2tyurT+os+dTH3x35D66D3NGZQq1REUKFdpiybFA/LzSFqlXjmD3wUBkS4rxTCqIprbqxtU6phsm19dE5H0QJ5I7o1dlYkD/aRNhn30enuezmeq7wjplL8Y6TcfWk1EQvrcWH8kSgwrU6a8OaLu2SP3VxKQpBCY9MeptaxZnUpe0QUe9PORKHVzXuac+PqE4RXs0zLGR0+CFtHSIVwevxX/+l4LU6Mv4+Yt3YJSai/YTZuPdVxSnNAbEiQgLV9wbadoVE9x/wa3QnzCjswiXd3wBXxY0+Y+y8axJV7i6fYyPPy7/W4/V4+1VOKUYKbH3ICIh9FV5rUCIwrCvsXDRj0jtMRcfuXSEsN4Px1besyVHD0Ih20HaPdkszkpGWoEEJSXFlR/Z6FvB0lyAUlEOntT0b0k+HmU/Q5OurnCr0A/7W78a4+1VKECcgth7IpBQX7kO69KnFOl9a4qXMvSEkKugthpgJ1frQNpl9R0CgXRbqlPNvlGjK826pU6YffQiPD4wQ+DOqXDoMhDLf3mgeiHXpCet9NEI5qMUfVh3s2XJuhTFhZlITiuApKQExZUDyhYgQakIOU8InWYfxUWPD2AWuBNTHbpg4PJf8EAxYA1tKOW5cwRt8d6iSTC7chCHIgtw/ef76DG9ryzp63r+4ofxSHqqD4MmmuVUhiT/EbKfNUFXV7cq9vsY61ePh9qwUfy/Am3jT98a3WzZclpajGLmWtr1Z6DCZpr8Uft8JxAWIuzrhVj0Yyp6zP0ILh2FlefWO3coUJfbBdr5gzp72qXH4p6IIFS9yEBYGIavFy7Cj6k9MPcjF3RUCCJOUd9WrR8ZaBnTDZXrqyFGVnIaCiQlKKlMDCwULWEuKIUo5wmo02wcveiBD8wCsXOqA7oMXI5fyhODUlTrr24wZ6rmYFKXq76jcm2RU/O4nlDIumDH2Qk6zz318YnamkkJ6ubY2PkTCumqlCHmhy34qWAstn3yDswUexsFZYk4ddin8iErhpHNVGxb6gRhPrsyLBaghXkHmMR5wcOn8qE6iBNw/ly47B3r59FDq9atoF8ajdBb1R+sJIn0ESagwNcNE9ZlYOJXWzHdoU3FO9XqfYcV5uxEaR/VkKheOOqCsIMtrM0kiLkVimeKfZAUobhEgA49+7JkothXjqAFzDuYIM7LAz5VFClOOI9z4SqeGtBrhdat9FEaHYrqKmLlqXR+demzNrBkLl06n1dhXTSovW9o1C1SEPGgPWZ9dRmx0eewoVcqPJZvhU+R4tya6FRPjWA+FTCfrpLxSwuLIHnVHt07dYKttRkkMbcQWjkgiopLIOjQE307AikRD9B+1le4HBuNcxt6IdVjObZqHlAtJiMWY1bXaBzZuwWeoiGY8po8CHQ9fz2zlmiBVNwMSVC54AnlSaDSPjIksoVH0MIcHUzi4OVRNaeJkXD+HLRyh9r4FRuwUsZSFBZJ8Kp9d3SomR+kqO3vmQqbldQh96qjAL5uE7AuYyK+2jodDm3KBdXtiq02t7OiUht/UGfP26at0Uq/FNGht6p/pazUN6TnFvjCbcI6ZEz8ClunO6DqdPVaqW+r1o+eaRnTf0quF6KDrTXMJDG4VZkYWCgWo0TQAT3liQEP2s/CV5djEX1uA3qlemD5Vh+ozAxq9KcUna4tmtF57qmPT6gxk7p89bLTAIU0S6pillaZxmsqLMd/I2btE2P5iYOY0SkPl7dOwWT3i8iu4XAvBkLu79vh5hmLimcIxOkIZAtZW9epcGkGNB05B9M7p+LwNGdMcz8Ar1NHsH2uG4JNbWTvSj2PAG3enYGxrZNw+J9rcTaJuWVxMv4XlQFxbgoS03OQmRCPjKcpuJuQj+K0AJwLSkNZQS7SwoIRma/opibC1jBvb4T065dxKysX8T4eOBqYDXFOGhKz8lAkETMbSH220kNlzvqcTZ5HImaOXX6e6RgsW9gTeaf34UCMPEIkmZfg98ARy5cOhfTGHAMjQ+g9eYi07CyEBNzDwDnT0Tn1MKY5T4P7AS+cOrIdc92CYWqjXEMQtMG7M8aiddJh/HPtWchV9D9EZYiRm5KIdHZlPFLbPhkSpgCxNJlVqEB+kSFL2Axha3O0N0rH9cu3kJUbDx+PowjMFiMnLRFZeSzDyJJG9WQofUeqvL0UmU6ZvqR7NPmGtC2VlrJLSQWadMsW2pM7v8PNAnZBZzUGG92nwtrYEEY13smopKlaPWnSBzMkDPWe4GFaNrJCAnBv4IuejwJJJuITniheZ+C33yLRffFHGG5kijHLFqJn3mnsOxAjL6bYuZf8HsBx+VIMNRQj5eROfCcfEGM2umOqtTEMZQNKmNmY/FVsWd2Pb7NS6/lzZOj3xLwFQ5Bz4hQkY10rvxpTx/MXvDoaE4cZ48bOaVj8rQ9u3PLDsWN+SK8QR4jW5u1hlH4dl29lITfeBx5HA5EtzkFaYhbyBCMxZ3pnpB6eBudp7jjgdQpHts+FW7Ap1ITN83bV4FdSJJnxqDTRb/gtsjsWfzQc0i8O1K4/oUqbqY0vjfnOAEaGenjyMA3ZWSEICMtEQnwGnqbcRUJ+MdICziEorQwFuWkIC47UHCsqkfuM/DwJ8tXldpGW8dBUtT3tzN/FjLGtkXT4n1h7NokVP8VI/l8UMsS5SElMR05mAuIzniLlbgLyi9MQcC4IaWUFyE0Lw/UMZ7VtRaTGj4RazqGBcn11vUtDcRkW9szD6X0HIA9FCTIv+eGB43IsHWrIrmFOYud3N1mMG8FqzEa4T7WGsaFRzTeJK5Dkq9ZfsHSRZv4nKb9oYeh6bZHNT+7gMj+UIXdweR+6zj1t1PuTWp9QaSYN+YpdfKudY2OHGVB3lKVS4PGdNMm2CQlfHU5uP1yke09FlBzxB/306Xx6f/pGOhmruB2+LIE8xrajdmO+pfuN4V7yoj9o89SZtPCDd2m063s0Zeokch0+hEYvPUThTxTnMJ7FeNKK4bbU0tCAmls40cIjURU3+CtHTLk39tNsR0tqaWZJ/VxX0PZFTmTlOJU2/BhIqSlnadWAdtSspTUNXfA9+R2bQ5Zmr9GYHddI8UiTUvJDdtHo11pQC/M+NGm3H3m7OZDt0Nm05fgVuvbLRhrZVkhN7KbQHu9ounvtEK10MiOBcW+a5xFAqSr0/Sz2PH0yugMJhRY0btt/KVLEdpYm0a+bxpFDn2E0ZcESmjdzMe3xy2CzklOW+BPN6NqKWtm50u5gqaKeUYznChpu25IMDZqThdNCOhKlXkMkzqUb+2eTo2VLMrPsR64rttMiJytynLqBfgx8yE7Qss8nUXRm40hqK2xCdlP2kHf0Xbp2aCU5mQnIuPc88ghIZSflU8iu0fRaixZk3mcS7fbzJjcHWxo6ewsdDwiiX7eMpY5CfbKa8BmdjUiisF8+pXcthKRvNYG2nw6nxLBTtGVsJ6YrSxq3/TzdLVLlG2LKCfOiDS7t2bntaeT643TzsUJ76nRbHEgbB9tS7xGzaI37Vvp40SLaflH+gKdqVOipNvooS6SfZnSlVq3syHV3MMks+YLnI3uox6ADDZq6kJatXk3LZ06gqZvO0YMK/y2lpF830TiHPjRsygJaMm8mLd7jRxnyASlw42Cy7T2CZq1xp60fL6JF2y9Suvgp3TnnTmPMhSTs9C59+luMrKfqfpyu9JwKck/TvNGf0P9qPlij4/mLH14kd9du1Ma0BVk5r6b//P4J9TMqf9iQkR9Cu0a/Ri1amFOfSbvJz9uNHGyH0uwtxylUapNnMeS5YjjZtjQkg+YW5LTwCKkOGzV2VRl/8gfoDDoMoqkLl9Hq1ctp5oSptOncAyqrU3+qbKZopdQfn1DUGU35rowSf5pBXVu1IjvX3RT8REwPz66iAe2aUUvrobTgez86NseSzF4bQzsuBNUidyjjGcWe/4RGd2A+YzGOtv03ktlPTW6vS3yrsac49wbtn+1Ili3NyLKfK63YvoicrBxp6oYfKTA1hc6uGkDtmrUk66EL6Hu/YzTH0oxeG7ODrrFFRm3bhyzYVI1blznoOtcr0buU0qRfadM4B+ozbAotWDKPZi7eQ37yxMDE3kiDbXvTiFlryH3rx7Ro0Xa6WO5kyhA/VK2/9Fg6/8lo6iAUksW4bfRf2aKp27Xl1v/O0MaRbUnYxI6m7PGm6LvX6NBKJzITGFPveR4UIF3QdZ176uoT6lCTr65c+0XzHBsxetL/KGrqhiH/PkJu56GVnT1sXm3aEG+BczicvyBl4ZvRb+BZvBt0C1v71OPmu78I4jvb4OhwHM5+t7HbUd07dH8WZQjf3A8Dz76LoFtbwU3E4XD+jjR8XdvMBo5vOsCOF9EcDqcuvAwf7f3N4SbicDh/V3hty+FwGiVlubnIF+fhcY78vr+/O2WPHyNP/BQiUeUdxy+WMuTm5kOc9xjcRBwO5++K0J2heM3hcDiNgsK4i/j35Ux06PM6THOTIWnfE9atyh+X//shTguEp08qXu3dHc3zUiHo2BtWZi/yfZBCxF38Ny5ndkCf102RmyxB+57W+BubiMPh/E1p+HukORwOh8PhcDicvyD81g4Oh8PhcDgcDqcO8EKaw+FwOBwOh8OpA7yQbsRI8pJw61oQItMrfiLmr0FRGiLuZPxFn/R/isSoeIjKJ1f4AOG3U1T/aladqTFOQ/M0EVHxojrarI6yajPmX9qnOI0SSR6Sbl1DUGQ6Ctm/B+G3kaLrQK9X3ElpILkaGU8ToxCv02T4J+fXelCUFoE7GTzzvUh4Id1ASB4G4/i/lmL80Dfx5tAJWLnvZwSniRVHNSFG0qn1+Gj3OQSd+wSj7Xrgg6MJimMvM3m4fWINXGxsMGTL1QYoLl8kYqT4fYF5b7yGbpM9ECv7YgUJkg/OwcCBC3BUZ4lO2TgNiDgFfl/MwxuvdcNkj9gqv1BXG+ooq1Zj/pV9SooEj67/iPWz38f7U6Zi2jw37DlyBNv3+1b+AivnT0ecdArrP9qNc0Hn8MloO3R3XYCpjgOx4KiOLubqFXeVSJIPYs5AHcrVyBCn+OGLeW/gtW6T4aGTZPgn59f6kHcbJ9a4wMZmCLZc1VHmE8dh1yBjtB39DaKr/T44Rx28kG4gBB0GYvo/lqBvwQ3cyOuBOcumYqB57R5plzzygtuqKPT753Is3+GFn9Y7wUzyV/h+qRboNcUNE+3lP7n710KITs5LMX9Ya/kvm8oQwGL+EQQHH8CsdroKNWXjNCDCTnBeOh/DWtfFZnWUVasx/8o+BRRc24TRM8/BfOVB/MfrZxzY6IzCE5vwmW86W/LrgSQH4WHx9evj74rkEbzcViGq3z+xfPkOeP20Hm+aD8b2wGAcmNVON4tqveKuEoHFfBwJ1qFcjQxhJ2csnT8MrXWWDOuQs15ULLXohSluE2Gvw4VAkuqDK6ULcezYR3jdULGToxFeSDckAlM0M9EDmjVHc1U/5K+EkhuXEVjQFM2M2IagFZw3HsN3c7rKD77sMJ2YSnXyl0SIVi1bVA+qphbo3asTpKbUHUrGaUiErdCyRV1Hq6Os2oz5l/WpIlw+eAiJfT/EvD5mMh2aWI/Bpn//C++1qZ/1C2/uw6Yf4+r8TuffmpIbuBxYgKbyBI1Wzhtx7LvFGO7QC510Gej1irtymsKit47lamQIW7VEvdVUDe1y1ouMJYGpKXSZ+gqTWmLmT//CW/XML383Xj5tlTxCbIg//K/fR670ElCSjvCLPvj9dx9cjcmFhP1LD7sIn99/h29wAgrkrZiHpCAy9hHERQ8RcT0G2bLLRwnyEm7gytVbSMzNRnp6xdkyxLkJCA24ipDYLOju/eACJEfE4pGETSUzGkFB0ciq6LwEKTd9cSH4PkRlj3HnEptD0H3kK44ygZAQGoCrIbFV2ihQOr8ipEXGIJONJRYlIjQoDMnlUyzJwp2gAISn1fiAuCQbcdf9cdn/BuJzq6eGwpRIxD4So+hhBK7HZGu8Ai9Kj0Kg3xWEJuVX+VhRD3p6tYt8SX4iohNYW3EO4kKYHeJyq4+pdM5SxMhNCEXA1RDEPqeoOuhESlE6ogL9cCU0Cfk1PyNldom/EYCgiDTWe825sfEi7qD6nR3q5FOD2nEY6mRUgXIbyRHnxuNGQBAi0oqkZquOGj+RoUlWFagdk1Ffn5JS8igWIf7+uH5f4U/1ySGSPCTcuIKrtxKRm52O6imkjnauQA8GBvp44vMFtl2qfAda0OZtfDDWnC33VSlCelQg/K6EIkmt8SV4FLwPH07bjetJ4bjg44coaTKSoeO40eQjSinBo9gQ+Ptfx31Zgq9KA8S1upyqhJKUm/C9EIz7ojI8vnMJv/sG4b4iQde8V7UgOYLlS7ZdkonooCBE19IH6hYDqnnuHtqCZEQwP5YwXWdGByEoWsn6JsslV3At/AHyag6iMu+q8sGGWGeZL8TfQEBQBJSrqbbxUAW1OasE2XHX4X/ZHzficxVFc11jSb0+lKNiPizv1Tb1qfJHSXo4Lvr8jt99riKl53RMtctGmCwf+iI4oVK2orRIxMgDDImhQQirDDBk3QlCQHja87ebqVyTCpESyeogcREeRlxHTKUT1dEfXiwvUSHNnPbKDsyavRuXkrIQtX8cuvRbhrMZZrCyzIHnYlfM+yGKObgALc3b4O430+G66gSSS7Nx8+gqDLexhcsWD+yeNBgDB72BmYdTcPubuVjhmYyy4ns4PmcQ3j+YpAgQEa7vm4VJ67wQmRKH82uHoJuLOy5nVfMELZEg+8ZhrBhmA7tR2+B5aDHefmcaZrzTB91dv8VdmR8RSgryICooAVEpCvJEED0pgpgNK7q+D7MmrYNXZArizq/FkG4ucL+cBYlE2fz644NPPbDuLVvYDPkEXqc2Y/oHszD3vYGwH/APeN88hqWu72PB0g/gZD8Ym67JA0J8/yg+dByPveGPkBGyC6O7OME9qBCS7Js4umo4bGxdsMVjNyYNHohBb8zEYWlQKUOSAd9tC7Hawx8RoSfhNtgWTut8UWv1iVNw5ev5GGDZDdO+Pg53l75wdBmJQd1sMHjzFYiUzllq00xIRNexb9YkrPOKRErceawd0g0u7pfZ2BKIbnthvZY6kdotw3cbFq72gH9EKE66DYat0zr4KiZTGPkDZo6ahx/CkhF7dhOWe8RUJFlR+M9YN8oGnYdsQcUtbCrlUxxXgepxpKiXUSlqbVSIyB9mYtS8H1iyjMXZTcvhEVM5mio/KUe9rKpQP2a9fUqK5BGu7JiF2bsvISkrCvvHdUG/ZWfxEK3qlkMO+OOruSvgmVyG4nvHMWfQ+ziYpJC5jnaujiGGr3CDc5Pr2DmmD5zmfwX/FOmNiy0xesIINJWfxFTji20LV8PDPwKhJ90w2NYJ63xZblAcr4ZEhIc5zfFqC4KkuAAiUR4KpSLrOG40+YgyJI+uYMes2dh9KQlZUfsxrks/LDv7UD4Pnce1mpyqOK4MKilAnqgAJUQoleZq0RMU5vwPP68bBZvO8ntVJdk3cHjFMNjYjcI2z0NY/PY7mDbjHfTp7opv5YleBbqNAYkovJpcTDDcOLwCw2zsMGqbJw4tfhvvTJuBd/p0h+u3dysu1PKv78H4dzYhsMSQXcQtx8Cu/eE86h1MdD+NqyrybplKHyxBpK7X2cJI/DBzFItVdrEUexablnugupq0iAcFanOW+D6OfuiI8XvD8SgjBLtGd4GTexAKtY4laWfq9KGcusynKpr8UdDKCpY5nljsyuYfxSQRtIR5m7v4ZrorVp1IRqnoNrzWvwVbmyH4xOsUNk//ALPmvoeB9gPwD++bOLbUFe8vWIoPnOwxeNM1xRsPqtakMmTfPIpVw21g67IFHrsnYfDAQXhj5mF2EdwQddefhPQHWV4GxBknaIrNKPomSSzbLrvzOTm/0oFmnn7KNu7RzoFGZLPqKhXLjhZT4JouZPTGNrpTxjbFyfSlsyE17bmSLmQ9oVj/SxSRfo3cuvemdSHPZC3EWV60a380lbLXIp8lZGe3jP4okB0iKggit9cNqN2k45QuH752iBNp7xADavLmvyheKgeVUcKeN8nA1IGWnYmXySr65UNqa+hIO+7KTpBRcHwimZpNof+Ujy/yoSV2drSsUiAKcnudDNpNouNSgZTNL7uUMr51IcOmA2j9lXQ2MtNK+Gbq26Q5Oa69QKnSiZZG0hYHQ7JYcpGK2Bmxnw0g496bKUx2LIz+r5cR9d4cJtOJOPlLcjZsSj1XXqCsJ7HkfymCspXqQkyZJ6aT87og1qd8O/VLZzJo0oM23JT2VEA/jTem5pO92Cs1FAfRmq5NqL3zZvJOZpoquEMHJpiT0KAvbQ5n/Sidcw75LLEju2V/VPRdEORGrxu0o0nH05kkYi11wobJPEHTnddRkHwyJE5lejBoQj023KTSAuZDPa2YD+bID7JRLyy2JIOubhQsc0Smi+9GkWHzyeQlE0ikQT4VaBhHrYzyXTVQb6OCa27U02omVQ53gRZbGlBXt2Dms+r9RJOsqlA/pi58itn+xBSyGfUNyVNIGd353Jle6cDGZCmkLjnkls8a6t57HclTiJiyvHbR/mipPHW0swqe3vGiNSMsyEhPjwTN7Gjc5v/SfXnaYsNm0onpzrSu0vhMTpZzemwgmWqUkkXfv2VM5vO9FfrUJK+2caPBR5QhzqATU2xo1DdJcv2U3aHPnV+hDjNP01Ody8fQlFPVUXCcJpqa0ZSKBC01w3c0yrA5TZYHOpUl7KE3DUzJYdkZipc6lOgX+rCtITnuuCuTTxn1iwHl1JSLCUZ73jQgU4dldEYuGP3yYVsydNxBsiWI6X2Hoyn1/eS23Falt+mTvoZkvdxfHhfK8u6jdNU+KF07dbrOFtA1t55kxfyiUk2LydKgK7nJk6H28aAhZ5XFfkYDjHvTZrkzU9j/9SKjct/WNpbYuqZKH0rRNJ+Cn2i8cRX7qkCTP5bd20kDjWxo1VWZlVkABdKaLkb0xrY7suPijG/Jha3/A9ZfoXR5gNHmvk2oueNauiAPMIrc4kCGFkvoIhNV/ZokpmTmu4ZNe9LKC1n0JNafLkVkU46u6q4XwEvzjnSutyd8DPuif3u5yEL71fjjcRqOTjCRbatFYAoTYwGaOYzA4DbN0GXoCPR41QJdrVOwd6wTpm89iSjhe1j7UTfos6tk74MnkNy5F3qXv+XTtD+mTbRH9nlPnM+W76obQpiYNIXApCdGvW0NA7bHxNYGHfXykPvcx5iViLwP4kRyZ/SqFAj9p02EffZ5eJ5nAimbXyt9NGtmCqGBNRz6tZN9DGxg2wVWhnqwcHCCuT7boc+uRM318CRXBDE7w3bJMQT+vBK2qVdwZPdBBGZLUPysSHblKzA1gbGgGRxGDEabZl0wdEQPtFLqPYXwP+ODtDhv7N2xAzt27MKxAhe4fzob/WthqgoExjA2FKKN03i4dGKaamqP2Z8uRG+KQsDVTEiUzVngg4PsCrpzr94V79Y17T8NE+2zcd7zPLLBztdKJ2w2/mfgkxYH773SuezArmMFcHH/FLPZZJ76fIcj97tjmHNL6VAMQ1hYtq/ykbsApszeFZ+8ibw1yKccTeOok1E56mz0FD7fHcH97sNQOZwFLNuXj6beTzTrRBmaxtSFT+XC29MHhn37Q55ChLBf/Qcepx1FbVKIshjr3c0e1il7MdZpOraejILwvbX4qBtzojraWRUm9pPxr0vRCPtlM8Z3ysS5re9h0LivECn93LPQH2d80hDnvVdm+x27jqHAxR2fzu6PWqtGo7zaxo16H1FKrjc8fQzRt397NhpDaI/VfzxG2tEJMNG5fLXIqVoizY9Nq3zELjRh2wIT9Bz1NqzliR42HfWQl1vj9rQKGiYGasrFBINJUwFMeo7C23LBYGvTEXp5ufJbJcseID6FOVb5/QL61rBmcqc/SMIz6bayvGt0VbUP6nfU7Tr71AffHbmP7sOcUakmS1SqSft40JSzhLZLcCzwZ6y0TcWVI7txMDAbkuJnKFLmzJp8VaU+VKCL+GZo74/VETRrBlOhAawd+qGdPMDQxcoQehYOcJIHGKwszaH3JBci1qH6NUm6LhqzPh0wYnAbNOsyFCN6CODTYHVXw/OSFNJiZGc9RpEoGzl1ekBVyU1Egk6YffQiPD4wQ+DOqXDoMhDLf3kAsTgLyWkFkJSUoLgiUOROIigVIedJbdxONTXv5dQTCpl0pOYJYTGyktNQIClBSaVAbF2whLmgFKKcJ+wMJfOTwnbXGK0iP8oRQCDdVgwuEBYi7OuFWPRjKnrM/QguHYWVT4yrGOI5JPl4lP0MTbq6wu3jj/Fx+d/61RhvrzJd1Ap9626wZXFYWlzM5HpeIHFWMtIKJCgpKa5csGULqAClohzITMeaVW+pTicS5D/KxrMmXeHqVmUuH6/H6vF2SI+9BxEJoa9uWlXGq5V8zyFGitpx1MlorzxBq7ORXTpi74lAQn2VyV21n2iSVQXiFPVj6sKnxNnIelwEUXZOpU9rRXWvkSLoNBtHL3rgA7NA7JzqgC4Dl+OXB+I62lkZYiSGhcuepwBM0XWCO365FYqfZnSG6PIOfOHLCtP8R8h+1gRdXd0q9cL+1q8ej1qrRudxoyGXKEGcnYXHRSJkK0nwupevNjlVW2oIwAavNryeEEK2g1Ql+gaLgRpysY3qetGDUC6Y3D6Gb2DsW+1x/9LvuCe936AkBrEPzDDi3aHMA6VUayxDrQ8a6HadFafE4p6IIFSRYLSPh1rkLIEQhWFfY+GiH5HaYy4+cukIoSozavJVUqEPxak10UV8y9DWH5+DnVzD9DVrGYE8wNg/zWtSja6kimvQuquheUkKaSHaWpjDONMHXj45in2MHF8c8IxlTsiCgF0lkaQyKcqQqPnqIJa4Ih60x6yvLiM2+hw29EqFx/Kt8CntAFtrM0hibiFUdgkuRYKi4hIIOvREX7Yg/LkI0cHWGmaSGNyqFAiSomKUCDqgZ18W1Ip99aMAvm4TsC5jIr7aOh0Obcp7rW2gKRC0gHkHE8R5ecCn4sELpu6E8zgXrv2jA0RVAqi0EEWSV2HfvYPSOQs72MLaTIIYVmxUmq4IxSUCdOjZF9qbToAW5h1gEucFDx/pwzkKxAk4f+42TFu3gn5pNEJvVf/CTakf1vBEGXWTTw+t1I6jTsZw5Q9rqLPRbVO0bqWP0uhQVB+OpUdZfKnzE02yqkCvlfoxdeFTwrawMDdGpo8XqqeQA/CMlfqY9jlEnBKBB+1n4avLsYg+twG9Uj2wfKsPSnXmh2VIPHW42pxhZIOp25bCSZiPXFExU405OpjEwcvDR1FwSxEj4fw51Fo1Oo8b7XOJsK0FzI0z4ePlg0rz5MD3gCfutdW1fH9WTtWCPyMGakUrjPvXd5jX/Cq+3roXn392Ck3++Tt+mm+lUidqffCZbtdZvVat0Uq/FNGht1BdTSy/yNSkbTxozlkFvm6YsC4DE7/aiukObSr0oMybNcYSVOij/BmaGugivmsFu4CTXuo+n/60XP9l1GFNEja2uks7XpJCGmgxeg4md8rAT4smYOX+/+D08c+xZIYnyNGWXVG3hnl7I6Rfv4xbWbmI9/HA0cBsiHPSkJiVhyLmINIrr9LSKrf0s0L65M7vcLOArU1WY7DRfSqsjQ1hpGeKMcsWomfeaew7ECM3uiQTl/wewHH5Ugw1ZJs5l7F1ymS4X9TweQMVswBijlhWilLZDgm7EmeLNgv6CveUOao8CZQjLi1FWZUrM9Mxy7CwZx5O7zuAGLlAyLzkhweOy7FUKpCy+TFkiUCaYBTb8vOqjiUvEsTSHZJ8JMRn4GnKXSTkFyMt4ByC0spQkJuGsOBImZxEbB7qnoqQ0RQj50xH59TDmOY8De4HvHDqyHbMdQuGqY30MyWmA1acyIsyTbB5xifgieJ1xm+/IbL7Ynw0XPpdTkrmbDoGyxb2RN7pfTggVxQz3SX4PXDE8qVDIdOUNjphNB05B9M7p+LwNGdMcz8Ar1NHsH2uG4JN7WD+7gyMbZ2Ew/9ci7NJLAkXJ+N/URkQ56YgMV3Eygk2vpjZuny8Wsj3PAK00TAOqZTRRnb70POosZGdOd6dMRatkw7jn2vPQj7c/xCVIUZuSiLSczLV+Em0RlkrH/WqgqCN+jFFpAOfaoHRcyajU8ZPWDRhJfb/5zSOf74EMzwJjrYsSdchh4hTTmLndzfZnIxgNWYj3Kdaw9jQCHoa7SxBzuWtmDLZHRez1cnMvDH3d2x380RsxXN6YqQHhiChrSumujSTOijmTO+M1MPT4DzNHQe8TuHI9rlwCzaFTDVKMYCRoR6ePExDdlYIAuKH6jZuNOUSZbQYjTmTOyHjp0WYsHI//nP6OD5fMgOe5AjbFrqPa805VQ1iaR6s/m42C3RZ0VE+noTleTEbkbmlAvn4Kn203jGgghpySbflS1CFYExP7D/sBPkpIpz/eCMS3/kc29Yuwyr3XdgyozfMZMekSPVaI++q80Fh3ddZZQjavIsZY1sj6fA/sfZsEiumi5H8vyhkiHORkpgOEWkbD5ryaw4yE+KR8TQFdxPyUZwWgHNBaSgryEVaWDAi87WMJZV1h+zU59EU3zL7VvVz5WjyR2Frc7Q3Ssf1y7eQlRsPH4+jCMwWIyctEVl5rMqXjVHFjxhSP6jqzzI/YuuddI/qdVO+JknbkrTOkTaUUTd/aDSwCb00FNw5TsuH21GbZi3I3GEq7fbPoPJ70PNDdtHo11pQC/M+NGm3H3m7OZDt0Nm05ac/yO/EBnJpLyRh+5G0/vhNeixtVBxIGwfbUu8Rs2iN+1b6eNEi2n6x/EGgUkr6dRONc+hDw6YsoCXzZtLiPX6UoRisLMGDxrZrR2O+vS/foQRxWjB57ZtHfUylDwj1oZk7j9GFy6do48i2JGxiR1P2eFP03Wt0aKUTmQmMqfc8DwpILabEP76lFYNbk0DwKjmv+Z5OBqfKbvYvTfqVNo1zoD7DptCCJfNo5uI95CcVSJxDYV7Pz+/pnV9py9iOJNS3ogmfnaWIpDD65dN3yUKoT1YTttPp8EQKO7WFxnZi7SzH0fbzMZR4dhUNaNeMWloPpQXf+9GxOZZk9toY2u59lbw2uFB7oZDaj1xPx28+rtC7cp5RjOcKGm7bkgwNmpOF00I6EiV9guAZxZ7/hEZ3YGNajKNt/42Un64M2QNKBtRh0FRauGw1rV4+kyZM3UTnHjBtqJizvF0S/bppHDn0GUZTFiyheTMX0x4/uZ9or5O7sgdInsV40orhttTS0ICaWzjRwiNRigdJxJR7Yz/NdrSklmaW1M91BW1f5ERWjlNpw4+BdD/yHLmPMSehsBO9++lvFCNtpEY+1agf5yFTiWoZVaHKRgxxLt3YP5scLVuSmWU/cl2xnRY5WZHj1A30Y2AqPVThJzuu5Uoba5RVKWrHfMhO0IFPMY3cOb6chtu1oWYtzMlh6m7yLw9qhrY5pDhwIw227U0jZq0h960f06JF2+li+VMxau1cRgkeY6lduzH07X1VCpFSRH9snkozF35A7452pfemTKVJrsNpyOildCj8ieIcxrMY8lwxnGxbGpJBcwtyWniEyk2pnDJK/GkGdW3Viuxcd1OwtCudxo3qXCL3ERUU3KHjy4eTXZtmzAYONHW3f0XObYi4VplT1VCW+Ad9u2IwtRYI6FXnNfT9yWBKzbtD59zHkDnLj53e/ZR+C71JZzaOpLbCJmQ3ZQ95R9+la4dWkpOZgIx7zyOPgFRFbzWocwyo4GkNuWIyKOrMRhrZVkhN7KbQHu9ounvtEK10MiOBcW+a5xFAqSUP6ecZVsRqQ2lZRHp6QjIwbU2d31zAxkpXnXdV+WA91llViHNv0P7ZjmTZ0ows+7nSiu2LyMnKkaZu+JEC5clQy3hQn7NSU87SqgHtqFlLaxq64HvyOzaHLM1eozE7rlGulrGkXh8qUDWfZ7F0/pPR1IHZ12LcNvpvpEh+fk2eRNXCH/MpZNdoeq0Fq636TKLdft7k5mBLQ2dvoeMBQfTrlrHUURZPn9HZiCQK++VTetdCSPpWE2j76XBKDDvFYrATW+ssadz283SXBZjyNUlMOWFetMGlPTu3PY1cf5xuVi7edfKHxoCe9D/ykprDaUSUhWNzv4E4+24Qbm3to/y+QQ6Hw+HoDslD/Prp98ifOBt9JY+R8+QpCvNFSI/0wqEHs+H73WgVn5xxOH9fXppbOzh/VzR8ZsXhcDgcHSBB+vEVWHXbGm/3tIZ97zfgNGQ4XN6ZiMlv90P/1635GxocjhJ4Ic1pnJTlIjdfjLzHOcofTuBwOByOThE0bwPDSysxYPh0rNj4KbZvd8e6JbOw+D+WWLSwy5//ECaH8xLAb+3gND4K43Dx+BlcTchFmb4ZrIZOwpyRnVU8OMfhcDgcXVGUEoLfzvkjMr0Q+maW6OPiitE9K7+tgsPhVIcX0hwOh8PhcDgcTh3gt3ZwOBwOh8PhcDh1gBfSfxueIjEqHqI6PbtXn7YcDuevgxa5QJyLuxEJrAWH83elCGkRd5DRwGtnUVoE7uhskIaUWZta4s/RnS7ghXQ9ESdewZGdi/DOYCe8OWQclu4+DO+oPMXRxoAYKX5fYN4br6HbZA/EavxBlarUpy2nQShJR+DB1RjTfSK+q5Fhym5/iSlDnODkVPVvMMbtCFacwXnRSLJ/xRqXNxW2eRPD5h9BolhxkKHp+ItDm1xQhsSLu/FhH0v0nHMMCTxvcP6G5N0+wWLZBjZDtuCqil8u1JYi30WwaNoFC3/NkH+fVd5tnFjjAhubIdiig0EaQmY52tUSDSdHw8AL6XoifG0oZv9jCqxSr+Om3jC4rZnDipwWiqONASE6OS/F/GGt5b88pBX1acvRPUWIu3YFt0Mu4tK9J1V+pUpKMYKOnUB8655wfHMwBg+W/vVHy0d30cSyi+IczoulDFHfH8SNZp1gYWHB/qzg+NYwWFQ8xaXp+ItEm1ygj9dcVmL+0NZQ9YNtDYkkJxxh8Y3i6oOjhL+LfVr0mgK3ifY6XDtLcNP3Nrpu+w++cm0nL95a9MIUt4mw19Egupe5HO1qiYaTo2HghbQuEDZHy2YC6DVviVcapUaFaNWyRR2NXZ+2HN1iBLvhUzHXtR9a1jRI0Q3c6/o1/E9/h8937cTOnexv41Dmj8Mw4e1WipM4L5ScX+ER/w6OnTyBEyekf//GzklWLMIUaDr+wtEmFwjR1LTpCyikC3Fz3yb8GMffBm+c/J3sI4CpqYnuYkD8EDm93HFsVS+2ElQiMDWFic4G0bHM1dAmfzSkHLrn5auPSh4hNsQf/tfvI7fmRW1ROqIC/XAlNAn5VT/1LkxBZOwjiIseIuJ6DLIr2omRmxCKgKshiM3SwbcVa7R6CbLjrsP/sj9uxOdW+Z15hiQPCTeu4OqtRORmpyO9QLFfE6rmLEWci/gbAQiKSEPRc8KpkUWK2rYMVePWZR5FaYiMyYSE2UOUGIqgsGSUNyvJuoOggHCkFSp2VFCE9KhA+F0JRVI1AQqQHBGLR2xXSWY0goKi8bxp1dm9ECmRrL24CA8jriOm0ll0O+eSbMRd98dl/xuIz9VuUdFroo8mitcVGA3GvAX9YarYlPLU7xxu9HDFaLV1tATZ0f7w+f13/M7+fEMS5bovTMJ1X7bPxx/R2TUdqzpFaZGIyWTniEVIDA1CWHKF9ZB1JwgB4WlMq1VR5ntayMF8MyE0AFdDYp+3rcpYV+UvEuQl3MCVq7eQmJuN9FoGXkl2HK77X4b/jXjUznzSd5v/haM//x/eHj4Nm47fRvX7BDUd10BBMiLYvCVMt5nRQQiKzmKvaqBOb+qoYy7Q0ys/twxZMcEIic5A4XNzqk8c10DyCMH7PsS03deRFH4BPn5RsvZy6jOOqrbKc4UkLwE3rlzFrcRcZKeny/24HHX5Wg1F6VEI9LuC0KR8ZuNKCpIjECsXHtFBQYjWyrAleBQbAn//67gvW0wlSA+/KItBn6sxyGXdStLDcNGHxZ9vMBJqhIbWMqm0j4a1SAWS/EREJ7CxxTmIC7mKkLhcltmroqZfFXlC+7hWoCYGNJYFVVFT35SIStDOsgliQ2vIJh1DySAlj2IR4u+P6/cVepGkI/yiD8uvPrgak8tsxuwdJre3b3BChZ8ql7ketVI98odWunuBvESFtASPruzArNm7cSkpC1H7x6FLv2U4+1CqeQkyfLdh4WoP+EeE4qTbYNg6rYNvxiPcPLoKw21s4bLFA7snDcbAQW9g5mFWtImuY9+sSVjnFYmUuPNYO6QbXNwvI6uKIXWK+D6OfuiI8XvD8SgjBLtGd4GTe5C8wCiJxDdzV8AzuQzF945jzqD3cTBJUxSrmLNiAoWRP2DmqHn4gRWlsWc3YblHTGUiUScLQ21bdeNqOw+JCLe91uMtWxsM+cQLpzZPxwez5uK9gfYY8A9v3Dy2FK7vL8DSD5xgP3gTrikiXZLhi20LV8PDPwKhJ90w2NYJ63wz8OjGYawYZgO7UdvgeWgx3n5nGma80wfdXb/F3fKkpNLurJC7eRSrhtvA1mULPHZPwuCBg/DGzMPIZMd0NmeG+P5RfOg4HnvDHyEjZBdGd3GCe9BzVwr1pAD+v4bgddfRUP9+tAAmzZ7h8ieTMXbad0h89VX5ux1GrWEYvB3rzz5BcxPlaUIiug2v9W/B1mYIPvE6hc3TP8Csue9hoP0A/MP7Jo4tdcX7C5biAyd7DN50TZ6oVfpe7eQQXd+HWZPWwSsyBXHn12JINxe4X86CRJKtMtbLlPoLa8MW2shv5mKFZzLKiu/h+JxBeP9gkoaFXIz7Rz+E4/i9CH+UgZBdo9HFyR0azSfJxzOrifjnorfRMeN37JwxEAPmeCKh3C81HVcFm/eNwyswzMYOo7Z54tDit/HOtBl4p093uH57t6KwUKk3xXFV1DkXlCPJhPeygeg7aCTe7GEJe9e9uJ6vOFSfOFaCRPQQOc1fRQuSoLhABFFeoUzW+oyjsq2KXJFy+xvMXeGJ5LJi3Ds+B4PePwh5OqiFrpQhyYDvtoVY7eGPiNCTcBtsC6d1vsh4dAOHVwyDjd0obPM8hMVvv4NpM95Bn+6u+FadkhRIHl3BjlmzsftSErKi9mNcl35YdjYDZlaWyPFcDNd5PyCKyS1oaY42d7/BdNdVOJFcoZQ6yaTUPhrWIqWIU3Dl6/kYYNkN074+DneXvnB0GYlB3WwwePMViGTnqOhXZZ54iLi6xHVd7foc6uobLXMOu2C5smMWZu++hKSsKOwf1wX9lp3FQ7YSWFnmwHOxK+b9EMViQ4CW5m1w95vpcF11AuXmfY561Er1zh8vC9LvkX4ZEGecoCk2o+ibJLFsu+zO5+T8SgeaefopiTNP0HTndRRUJDtE4tQvydmgCfXYcJNKxcn0pbMhNe25ki5kPaFY/0sUkZ1DPkvsyG7ZH1Qgb0IFQW70ukE7mnQ8neQjaEHpTdrYowkZvnuYnih21aQs9jMaYNybNoeVsq1SCvu/XmTUezNJN4vZ2N17r6OQZ9IzxZTltYv2R0vPU43aORdcI7eeVkw3OfKDbJYXFluSQVc3Ci5WLwtpaKtuXKkOtZ0HMyx968LsM2A9XUkvYzuKKXxzX2rS3JHWXkhl0jEJI7eQg6EFLbnIBhVn0onpzrSuUgBmXwNq0mMD3Swto4Q9b5KBqQMtOxPPeiIS/fIhtTV0pB13pX2LNNhdTMlfOpNh05608kIWPYn1p0sR2VSq0zmXUexnA8i4XN+lYfR/vYyo9+Yw2VxrQ5H3fDI3GkHfPFTjqQXnacHrE+nYY8W2Bp5d+yfZG3ah1QGyicj0/NPMybRfEW+qEGd8Sy6GTWnA+iskN184be7bhJo7rqULqbIJUuQWBzK0WEJS86n1PYZaOUQ+tMTOjpb9UWE9CnJ7nQzaTaLj6ey4slh/lK7aXwqCyK17b1onNx6Js7xo1/5o9XYoi6XPBhhX2Ks07P+ol1H5fGpJ6UO6tHkYtdE3o7e/S2QeUQNNx2tSlkB73jQgU4dldCZe5vX0y4dtydBxB8ndXoPeVFGPXFDK/t34uDsZdBhLe0Meszk8pahDU8i6iQH1lequXnGshqzv6S1jc5rvXd5vPcZR21ZZrkina27dqfe6EJKngyzy2rWfpOlAva5UIabME9PJeV0QyZuJKZWNadCkB224WcrMvofeNDAlh2VnSG72X+jDtobkuOOuep9hOffEFBsa9U0S65FRdoc+d36FOsw8zaxURvd2DiQjm1V0VdonozhwDXUxeoO23ZH2Wk+ZathHUz5QSXEQrenahNo7bybvZDZQwR06MMGchAZ9aXM4k0Ndv8ryRNadOsW1JrsW/DSejJtPJq/y0FOBuvpGY84p+InGGzenybJBxJRxYgrZjPqG5F2V0Z3PnemVDjNJ2hWV3aOdA43IZtVVmb9L19vANV3I6I1tJDMvo7rMmtZMNdQrf9SUo3Hz0rwjnevtCR/DvujfXi6y0H41/nichqMTTFDofwY+aXHw3rsDO3bswK5jBeyK6VPM7m/CLqlNYWIsQDOHERjcphm6DB2BHgIfHDyRjM69eqOprDegaf9pmGifjfOe55Gt2KdLhLZLcCzwZ6y0TcWVI7txMDAbkuJnKGIXX/odu8I6ZS/GOk3H1pNREL63Fh9101e0VI66OT/1+Q5H7nfHMOeWirMNYWHZvuJeS3WyaGqrbty6zAOCZmhmKoSBtQP6tZOOYgDbLlYw1LOAg5M5pK31rSxhrvcEuSJ2yVzojzM+aYjz3isbf8euYyhwccens/vDhElpYtIUApOeGPW2teyXEE1sbdBRLw+50s/JRN4a7C6AqYkxE8kBIwa3QbMuQzGiRysU6XTOQtguOYbAn1fCNvUKjuw+iMBsCYqfFbHrc91RGPArgruMw9uvKHZowMhxGZYNzcSxL07Kvm5InPwf/Ko3DpM6qU8RgmbNYCo0gLVDP8jNZ4suVobQs3CAk7nMerCyNIfek1xIzafO96Sok0PkfRAnkjujV+8K66H/tImwzz4Pz/MsapXFutFV1f6i3xFdrVOwd6wTpm89iSjhe1j7UTeZz6lEaIslxwLx80pbpF45gt0HA5EtKcaz8gnUBv32GPHJCeybYISA//ricc2mmo7XRGgCk6YCmPQchbetZV4PW5uO0MvLlX08rFFvKqhPLihH0I7FksMr0sjE67P+hVWDBYgKuIr0p/WIY22oT75Q21ZZrngVFl2tkbJ3LJymb8XJKCHeW/sRpOmgNrp6nkL4n/FBWpw39krH37ELxwpc4P7pbEibCU1M0FRggp6j3obc7Law6aiHvNyatzjUINcbnj6G6Nu/PZsFQ2iP1X88RtrRCWxemtCtTJrygUoExjA2FKKN03i4dGIDNbXH7E8XojdFIeBqJvTU9assT7TpUqe4rptdn0ddfaNdzsmFt6cPDPv2h7wrIexX/4HHaUch7UprNK6ZqtFF/nhZUL9KNhrEyM56jCJRNnKee4pTgvxH2XjWpCtc3T7Gxx+X/63H6vH2bFFUcrdPVjLSCiQoKSmuLF70rWBpLkCpKAdPtMzVtUIgRGHY11i46Eek9piLj1w6QqiYi6DTbBy96IEPzAKxc6oDugxcjl8eqBNC3ZztkB57DyISQl9VRaBSFjFS1LZVr2sDrech57k7oWreGyUQyLalT/BK8h8h+1kTdHV1qzL+x1i/ejzsmcyV92XK0RMKWVuSta2N3Z/3Ft3PWSAsRNjXC7Hox1T0mPsRXDoKmYS6pAhBZ4Nh6zoatayjWb61woxVk2Dy+z58H1GI6H//gTZTXNFGY4ZgGquhtJo2EAik28wGsg3VcSBDpRxiZCWnoUBSgpLiygVEdpElKIUo5wnzXiXWU+cvBp0w++hFeHxghsCdU+HQZSCW//JAfRHCUqawMAxfL1yEH1N7YO5HLuhYbQK1RNAO4yY7w/TZUxQqa67peDVq3iOpB6GQ7WBOT2w2mvWmjPrlAqVNBG1gbWUGvbIylNYjjrWhPvlCY1tFm0oE6DT7KC56fACzwJ2Y6tAFA5f/ggfiOuhKiiQfj7KfoUlXV7hVGf/j9asxXi58dRn0hJCbXb2SxNlZeFwkQvbzi6lmdC2TpnygBfrW3WDLarDS4mKQ2n6ft5zUdtrHdR3t+hzq6hspWsgmzkbW4yKIsnPk+bae1L1WaoD80Yh5SQppIdpamMM40wdePjmKfYwcXxzwjIOpeQeYxHnBw0f6sI0CcQLOnwt//oEbhrCDLazNJIi5FYpnin2QFKG4RIAOPfsyJ1Xs0wXiRJw47ItMXzdMWJeBiV9txXSHNhVXZVJnF6dE4EH7Wfjqciyiz21Ar1QPLN/qw8ohVQjQQuWcb8O0dSvol0Yj9Fax4oAckkgfLwAKVMqih1Zq26obNxzPtJ6H9ghamKODSRy8PHyqPEgkRsL5cwjX8AxE3eyu6zkXwNdtAtZlTMRXW6fDoU1VT9ARxUE4G9QZrqNf0SrAm41aiUW97uLAzq3YH2qPGSOqPrqoG1T7XiXK5RCig601zCQxuBVaYT1mvmKUCDqgZ1+2UCr2VUWtvzxLQcSD9pj11WXERp/Dhl6p8Fi+FT7qHLbAF24T1iFj4lfYOt0B9TGfpAywemMgzJX6nebjtaNuepMWG/XJBcpD8RkeP36Gjr0dYN6y7nGsDfXJF9q3ZcVDxAO0n/UVLsdG49yGXkj1WI6tPiV10BVD0ALmHUwQ5+UBn0oBWLPzOFcPJQnbWsDcOBM+Xj6oXE1z4HvAE7GsMBLqM48g+VpRiUR+EaNjmWqTD9RBVKWSKy1EkeRV2HfvgCJt+61TXNclBpShrr6JhVgb2YRtYWFujEwfL1Tv6gA8pcZlY8nNW9260u9SVdpdnWulhsgfjZeXpJAGWoyeg8mdMvDToglYuf8/OH38cyyZ4QlytEWzkXMwvXMqDk9zxjT3A/A6dQTb57oh2NQGBsw9pFfDpaWVt7jDdAyWLeyJvNP7cCBGbjJJ5iX4PXDE8qVDYcjMmnN5K6ZMdsdFDd9YIENSyhyLjfOsEOzirQpPEfHtJgQYOoAS4pHxNAV3E/JRnBaAc0FpKCvIRVpYMG7HnsTO726yEssIVmM2wn2qNYwNjZReN5fTVOWc7WD+7gyMbZ2Ew/9ci7NJzImLk/G/qAyIc1OQmJ6DTJWyXEeGs7q2IpAaXQtTtJ+HNBtIWGBVC2xmL3mwKZBlcDE7j/2v6UjMmd4ZqYenwXmaOw54ncKR7XPhFmwKGwMJxGKWLNgiUJEUZG1ZX9K2Gu0uPZ2NXVqKKt6iRtd1mLMkHwnxGXiachcJ+cVICziHoLQyFOSmISw4UnGSeojNkWlDPiclFAefRaD1uxjTWsvwFtpj/qqxEJ/ahyjHGegv/WhWE9IFlyXh6uaT27Qcufmk9pQgX00cRCoeQlMlh+mYZVjYMw+n9x2A3HwSZF7ywwPH5Vg6VGY92djVYl2dvwhTcHLnd7hZABhZjcFG96mwNjaEkRqHleQnID7jKVLuJiC/OA0B54KQVlaA3LQwBFdMQAmFcbh8JgBJ5UV63nV8fc4M//yHo+yWAo3H1SFh/iBz+8qlUO72Uo3XRm/KEKCN2jyiPheUy0xPc5GjmFNR1CH8+/5I/N8/3oRhfeJYHQZGMNR7godp2cgKCcBtqsc4amWUnlozV7BC+uROfCd3KIzZ6I6p1sYwZA6lLoeotm9TjJwzHZ1TD2Oa8zS4H/DCqSPbMdctGKZMAIksD7BYqxReNo+qsaeUFqMxZ3InZPy0CBNW7sd/Th/H50tmwJMcYSsUorV5exilX8flW1nIjfeBx9FAZItzkJaYhbyiespUzT5XEBJTi3ygEubH8Ql4onid8dtviOy+GB8NN9CQZ57PE3WNa012lbC8V20tU4G6+kZPk2ws/iWyPCzrCaPnTEanjJ+waMJK7P/PaRz/fAlmeBIcbVnVK2wN8/ZGSL9+GbeychHv44GjgdkQ56QhMStP9gZQNZlrsWYqp/75o7a6axQwh3ppKLhznJYPt6M2zVqQucNU2u2fUXGz+7MYT1ox3JZaGhpQcwsnWngkigrEORTmtYFc2gtJ2H4krT9+kx6XNyhNol83jSOHPsNoyoIlNG/mYtrjV95fGSV4jKV27cbQt/fVPrZBZYlX6OjOKWRnoEd6Bu2pl/NbNHr0aBr91nAa9Ho7Mm4+lg5miEn88CytGtCOmrW0pqELvie/Y3PI0uw1GrPjGmUGbqTBtr1pxKw15L71Y1q0aDtdVPcQkAKlc5YdEVPujf0029GSWppZUj/XFbR9kRNZOU6lDT8GUmqKallyNbR9yNShatxirefxlO78uoXGdhSSvtUE+uxsBCWF/UKfvmtBQn0rmrD9NIUnhtGpLWOpk1BIluO20/m7RVIByHPFcLJtaUgGzS3IaeERimICPIk6QxtHtiVhEzuassebou9eo0MrnchMYEy953lQQCoTXqXdxZQT5kUbXNqTUNieRq4/TjcrnEWXcxbTw7OraEC7ZtTSeigt+N6Pjs2xJLPXxtCOa7mKc1RRRqmBx2nnJFtqInyVhrv9QBfvKZ7UqKCYrv6jL40/lMlGqgNFV+kfDu+SR2otWj+9Q78y23QU6pPVhM/obEQShf3yKb1rIbfn9tPhlBh2iraM7cR0aknjtp+nmER1vlcFFXKUJv1Km8Y5UJ9hU2jBknk0c/Ee8mPxRepiXYW/MOPRxsG21HvELFrjvpU+XrSItl/U8ACN+CGdXTWA2jVrSdZDF9D3fsdojqUZvTZmB6kzX2n0v2hwcyE1t3WmKTM+pKkz19K/o+XRKkXTcdU8oagzG2lkWyE1sZtCe7yj6e61Q7TSyYwExr1pnkcAyd1ehd7UUvdcIOXZ/d/os5nDqP+QcTR76Uo27qf0633FQ6RS6hPHqihLpJ9mdKVWrezIdXew/OHv+oyjtK2qXFFMgRsHk23vETRrjTtt/XgRLdp+kcrTgTpdqeYZxXiuoOG2LcnQoDlZOC2kI3Lh6czGkdRW2ITspuwh7+i7dO3QSnIyE5Bx73nkEZCqaK+Cgjt0fPlwsmvTjFqYO9DU3f5U4Q75IbRr9GvUooU59Zm0m/y83cjBdijN3nKcQmXzrIdMNewjUrMuqs2Gsoe0DajDoKm0cNlqWr18Jk2YuonOPZD7hsr1drs3XVWWJ+oY11JU2fVZ7Hn6ZHQH5iMWNG7bfylSJD9fFSrrG3WypcfS+U9GUwe2PlqM20b/lQ1SQHeOL6fhdm2oGbOhw9Td5F8l1vNDdtHo11owu/ehSbv9yNvNgWyHzqYtx0Mp9Y4SmdXWSuqoe/7QVncvGj3pfxQ1NYfDeekpxoObYSizd0TnOtyZIUn5AXO2tcI+j/dR/ojIi6CxyKFLCh/eRmisCMaWPdCnc6vn7gPUdJzD4SgoC8fmfgNx9t0g3Nrah8cK54Xy0tzaweFwaoMhLPtrW0RLUJiXjxIU4LrHJbT/cOwLKl4bixwNQ9MOvTBk+FD0V1EkazrO4XBq8lJ88M/5i8MLaQ7nb474zk4Mb/sK2rTrgqWPpmOVU9UfoP3zaCxycDicRk5ZLnLzxch7nPPSPZjG+evBb+3gcP7uiJNx6ft/43YrF8yc3L/yqfA/m8YiB4fDabwUxuHi8TO4mpCLMn0zWA2dhDkjO2t+KJfDaSB4Ic3hcDgcDofD4dQBfmsHh8PhcDgcDodTB3gh3eA8RWJUPETlz0QUPkD47RSd/kgJh8PhcDgcDufPhxfSDYYYKX5fYN4br6HbZA/Eyr77XYLkg3MwcOACHM3gTxtzOBwOh8PhvMzwQrrBEKKT81LMH9Za/mNZMgSwmH8EwcEHMKsdVz2Hw+FwOBzOywyv5hoUIVq1bFFdyU0t0LtXJ/Av9uJwOBwOh8N5uXmpCmlJfiKiE/IhEecgLuQqQuJyIVYck1GYgsjYRxAXPUTE9RhkVxwUIzchFAFXQxCbVfNbJ4uQFhmDTAk7S5SI0KAwJBcoDpVk4U5QAMLTChU7KilKj0Kg3xWEJjF5FPsqEOci/kYAgiLSWO96ip3lsPEi7qD6nR3q5ONwOBwOh8PhNEZejkJanIIrX8/HAMtumPb1cbi79IWjy0gM6maDwZuvQCTJxs2jqzDcxhYuWzywe9JgDBz0BmYezoREdB37Zk3COq9IpMSdx9oh3eDifhlZEglEt72w/i1b2Az5BF6nNmP6B7Mw972BsB/wD3jfPIalru9jwdIP4GQ/GJuuKaprSQZ8ty3Eag9/RISehNtgWzit82X9yQ8XRv6AmaPm4YewZMSe3YTlHjGQ3R7Nym1R+M9YN8oGnYdswdXypw1Vyqc4zuFwOBwOh8NpnEi/R/qloDiI1nRtQu2dN5N3cjFRwR06MMGchAZ9aXN4KZE4mb50NqSmPVfShawnFOt/iSKyc8hniR3ZLfuDChTdFAS50esG7WjS8XQSs38Z37qQYdMBtP5KOpWx48Xhm6lvk+bkuPYCpbJuqTSStjgYksWSi1TEzs88MZ2c1wWx11LElPqlMxk06UEbbrKTC66RW08rmnk6R3aU7aALiy3JoKsbBTORpednfjeKDJtPJi+ZQCIN8nE4HA6Hw+FwGisvz60dAmMYGwrRxmk8XDoZAE3tMfvThehNUQi4mgmJwBQmxgI0cxiBwW2aocvQEegh8MHBE8no3Ks3miq6adp/GibaZ+O853lkg53fzBRCA2s49GsH6Q+pGdh2gZWhHiwcnGCuz3boW8HSXA9PckUQoxD+Z3yQFueNvTt2YMeOXThW4AL3T2ejvwnw1Oc7HLnfHcOcW8rGAgxhYdle1q8cAUxNmlbe7CHy1iAfh8PhcDgcDqex8lI/bKhv3Q22rIAtLS4GPXcvMiDOSkZagQQlJcWV9zHLCmMBSkU5eCK9h5o1q95SD3rVdgggkG5Lv3pDko9H2c/QpKsr3D7+GB+X/61fjfH2ekiJvQcRCaEvLcBVUWW8WsnH4XA4HA6Hw2mUvHSFNFGV6rK0EEWSV2HfvUOVd30rEXawhbWZBDG3QvFMsQ+SIhSXCNChZ190VNZIHYIWMO9ggjgvD/g8qryJWZxwHufCS9GqdSvol0Yj9Fax4ogckkiefyCRoXP5OBwOh8PhcDh/Gi9ZIS1BZnwCniheZ/z2GyK7L8ZHw6VfJkfS+71RWip/tE+G6RgsW9gTeaf34UCM/NswJJmX4PfAEcuXDoUh25YVuVS10JX2w7YrdrBt9l+xbEdTjJwzHZ1TD2Oa8zS4H/DCqSPbMdctGKY2Rmjz7gyMbZ2Ew/9ci7NJrJguTsb/ojIgzk1BYroI0scVJWKJvH9p1xrlkyDn8lZMmeyOi9nKSnEOh8PhcDgczotC6M5QvG7cSDLg98NB3H6mh5TwYPj7nMDx8M74+PtNGGKWh/CTe7DvyFXEJj5Gaftu6PN6BzTV00fHIW+jx7M/8PXOg/jj1g34+iajz+Zv8I83mqMw5hw+38f2x6SjtKk1ulk8Q+D3X+PwpRiklxnDsmsnFAd+j2+O+CHmYQmM7frizVHv4S2bJwi/fAYnTvyKwMxOmLt3O8Z3bAK9Zq/DZWgbJF84hF3bv8GpGyK0e+Up7pWYoV1La9g2uQ2PLw/AL/Yhigzs0Kd/N/QeoVo+PenFwqXPsfloGnpM+wD9W73Ud+JwOBwOh8Ph/KXQkz5xqHjduCkLx+Z+A3H23SDc2toH6m5D5nA4HA6Hw+FwGpqX8C1OfosDh8PhcDgcDufF8/IU0mW5yM0XI+9xDvhv/3E4HA6Hw+FwXjQvx60dhXG4ePwMribkokzfDFZDJ2HOyM4wUBzmcDgcDofD4XD+bF6ee6Q5HA6Hw+FwOJxGBP8aCA6Hw+FwOBwOR2uA/we0kjsZmVQXJwAAAABJRU5ErkJggg==;" vertex="1" parent="1">
          <mxGeometry x="150" y="10" width="440.24" height="50" as="geometry" />
        </mxCell>
        <mxCell id="xguzesm__UQEx_N3slbm-2" value="can 0" style="rounded=1;whiteSpace=wrap;html=1;" vertex="1" parent="1">
          <mxGeometry x="310" y="66" width="70" height="20" as="geometry" />
        </mxCell>
        <mxCell id="xguzesm__UQEx_N3slbm-3" value="alm cont" style="rounded=1;whiteSpace=wrap;html=1;" vertex="1" parent="1">
          <mxGeometry x="310" y="90" width="70" height="20" as="geometry" />
        </mxCell>
        <mxCell id="xguzesm__UQEx_N3slbm-4" value="can 1&amp;nbsp;" style="rounded=1;whiteSpace=wrap;html=1;" vertex="1" parent="1">
          <mxGeometry x="310" y="160" width="70" height="20" as="geometry" />
        </mxCell>
        <mxCell id="xguzesm__UQEx_N3slbm-5" value="alm uno" style="rounded=1;whiteSpace=wrap;html=1;" vertex="1" parent="1">
          <mxGeometry x="310" y="184" width="70" height="20" as="geometry" />
        </mxCell>
        <mxCell id="xguzesm__UQEx_N3slbm-6" value="can 17" style="rounded=1;whiteSpace=wrap;html=1;" vertex="1" parent="1">
          <mxGeometry x="310" y="209" width="70" height="20" as="geometry" />
        </mxCell>
        <mxCell id="xguzesm__UQEx_N3slbm-7" value="alm acu" style="rounded=1;whiteSpace=wrap;html=1;" vertex="1" parent="1">
          <mxGeometry x="310" y="116" width="70" height="20" as="geometry" />
        </mxCell>
        <mxCell id="xguzesm__UQEx_N3slbm-8" value="alm ed17" style="rounded=1;whiteSpace=wrap;html=1;" vertex="1" parent="1">
          <mxGeometry x="310" y="235" width="70" height="20" as="geometry" />
        </mxCell>
        <mxCell id="xguzesm__UQEx_N3slbm-9" value="can 55" style="rounded=1;whiteSpace=wrap;html=1;" vertex="1" parent="1">
          <mxGeometry x="310" y="259" width="70" height="20" as="geometry" />
        </mxCell>
        <mxCell id="xguzesm__UQEx_N3slbm-10" value="alm ed55" style="rounded=1;whiteSpace=wrap;html=1;" vertex="1" parent="1">
          <mxGeometry x="310" y="285" width="70" height="20" as="geometry" />
        </mxCell>
        <mxCell id="xguzesm__UQEx_N3slbm-11" value="lea 3000" style="shape=trapezoid;perimeter=trapezoidPerimeter;whiteSpace=wrap;html=1;fixedSize=1;direction=west;" vertex="1" parent="1">
          <mxGeometry x="287.5" y="309" width="115" height="21" as="geometry" />
        </mxCell>
        <mxCell id="xguzesm__UQEx_N3slbm-25" style="edgeStyle=orthogonalEdgeStyle;rounded=0;orthogonalLoop=1;jettySize=auto;html=1;exitX=1;exitY=0.5;exitDx=0;exitDy=0;entryX=0.5;entryY=0;entryDx=0;entryDy=0;" edge="1" parent="1" source="xguzesm__UQEx_N3slbm-12" target="xguzesm__UQEx_N3slbm-13">
          <mxGeometry relative="1" as="geometry" />
        </mxCell>
        <mxCell id="xguzesm__UQEx_N3slbm-12" value="JZ" style="rhombus;whiteSpace=wrap;html=1;" vertex="1" parent="1">
          <mxGeometry x="305" y="370" width="75" height="41" as="geometry" />
        </mxCell>
        <mxCell id="xguzesm__UQEx_N3slbm-13" value="car acu" style="rounded=1;whiteSpace=wrap;html=1;" vertex="1" parent="1">
          <mxGeometry x="405" y="418" width="70" height="20" as="geometry" />
        </mxCell>
        <mxCell id="xguzesm__UQEx_N3slbm-14" value="div cont" style="rounded=1;whiteSpace=wrap;html=1;" vertex="1" parent="1">
          <mxGeometry x="405" y="440" width="70" height="20" as="geometry" />
        </mxCell>
        <mxCell id="xguzesm__UQEx_N3slbm-16" value="esa 6000" style="shape=trapezoid;perimeter=trapezoidPerimeter;whiteSpace=wrap;html=1;fixedSize=1;direction=east;" vertex="1" parent="1">
          <mxGeometry x="382.5" y="508" width="115" height="21" as="geometry" />
        </mxCell>
        <mxCell id="xguzesm__UQEx_N3slbm-17" value="alm prom" style="rounded=1;whiteSpace=wrap;html=1;" vertex="1" parent="1">
          <mxGeometry x="310" y="139" width="70" height="20" as="geometry" />
        </mxCell>
        <mxCell id="xguzesm__UQEx_N3slbm-18" value="alm prom" style="rounded=1;whiteSpace=wrap;html=1;" vertex="1" parent="1">
          <mxGeometry x="405" y="462" width="70" height="20" as="geometry" />
        </mxCell>
        <mxCell id="xguzesm__UQEx_N3slbm-19" value="car prom" style="rounded=1;whiteSpace=wrap;html=1;" vertex="1" parent="1">
          <mxGeometry x="405" y="484" width="70" height="20" as="geometry" />
        </mxCell>
        <mxCell id="xguzesm__UQEx_N3slbm-21" value="PAR" style="ellipse;whiteSpace=wrap;html=1;" vertex="1" parent="1">
          <mxGeometry x="410" y="529" width="60" height="40" as="geometry" />
        </mxCell>
        <mxCell id="xguzesm__UQEx_N3slbm-22" value="" style="endArrow=none;html=1;rounded=0;entryX=0.5;entryY=1;entryDx=0;entryDy=0;exitX=0.5;exitY=0;exitDx=0;exitDy=0;" edge="1" parent="1" source="xguzesm__UQEx_N3slbm-23">
          <mxGeometry width="50" height="50" relative="1" as="geometry">
            <mxPoint x="343" y="561" as="sourcePoint" />
            <mxPoint x="342.5" y="411" as="targetPoint" />
          </mxGeometry>
        </mxCell>
        <mxCell id="xguzesm__UQEx_N3slbm-23" value="res ed17&amp;nbsp;" style="rounded=1;whiteSpace=wrap;html=1;" vertex="1" parent="1">
          <mxGeometry x="296.25" y="561" width="92.5" height="20" as="geometry" />
        </mxCell>
        <mxCell id="xguzesm__UQEx_N3slbm-28" style="edgeStyle=orthogonalEdgeStyle;rounded=0;orthogonalLoop=1;jettySize=auto;html=1;exitX=1;exitY=0.5;exitDx=0;exitDy=0;entryX=0.5;entryY=0;entryDx=0;entryDy=0;" edge="1" parent="1" source="xguzesm__UQEx_N3slbm-26" target="xguzesm__UQEx_N3slbm-27">
          <mxGeometry relative="1" as="geometry" />
        </mxCell>
        <mxCell id="xguzesm__UQEx_N3slbm-26" value="JN" style="rhombus;whiteSpace=wrap;html=1;" vertex="1" parent="1">
          <mxGeometry x="305" y="581" width="75" height="41" as="geometry" />
        </mxCell>
        <mxCell id="xguzesm__UQEx_N3slbm-40" style="edgeStyle=orthogonalEdgeStyle;rounded=0;orthogonalLoop=1;jettySize=auto;html=1;exitX=1;exitY=0.5;exitDx=0;exitDy=0;entryX=0;entryY=1;entryDx=0;entryDy=0;" edge="1" parent="1" source="xguzesm__UQEx_N3slbm-27" target="xguzesm__UQEx_N3slbm-11">
          <mxGeometry relative="1" as="geometry">
            <Array as="points">
              <mxPoint x="520" y="640" />
              <mxPoint x="520" y="289" />
              <mxPoint x="402" y="289" />
            </Array>
          </mxGeometry>
        </mxCell>
        <mxCell id="xguzesm__UQEx_N3slbm-27" value="JI 11" style="shape=step;perimeter=stepPerimeter;whiteSpace=wrap;html=1;fixedSize=1;" vertex="1" parent="1">
          <mxGeometry x="400" y="631" width="80" height="20" as="geometry" />
        </mxCell>
        <mxCell id="xguzesm__UQEx_N3slbm-29" value="00" style="text;html=1;strokeColor=none;fillColor=none;align=center;verticalAlign=middle;whiteSpace=wrap;rounded=0;" vertex="1" parent="1">
          <mxGeometry x="250" y="61" width="60" height="30" as="geometry" />
        </mxCell>
        <mxCell id="xguzesm__UQEx_N3slbm-30" value="01" style="text;html=1;strokeColor=none;fillColor=none;align=center;verticalAlign=middle;whiteSpace=wrap;rounded=0;" vertex="1" parent="1">
          <mxGeometry x="250" y="85" width="60" height="30" as="geometry" />
        </mxCell>
        <mxCell id="xguzesm__UQEx_N3slbm-31" value="03" style="text;html=1;strokeColor=none;fillColor=none;align=center;verticalAlign=middle;whiteSpace=wrap;rounded=0;" vertex="1" parent="1">
          <mxGeometry x="250" y="115" width="60" height="30" as="geometry" />
        </mxCell>
        <mxCell id="xguzesm__UQEx_N3slbm-32" value="04" style="text;html=1;strokeColor=none;fillColor=none;align=center;verticalAlign=middle;whiteSpace=wrap;rounded=0;" vertex="1" parent="1">
          <mxGeometry x="250" y="139" width="60" height="30" as="geometry" />
        </mxCell>
        <mxCell id="xguzesm__UQEx_N3slbm-33" value="05" style="text;html=1;strokeColor=none;fillColor=none;align=center;verticalAlign=middle;whiteSpace=wrap;rounded=0;" vertex="1" parent="1">
          <mxGeometry x="250" y="159" width="60" height="30" as="geometry" />
        </mxCell>
        <mxCell id="xguzesm__UQEx_N3slbm-34" value="06" style="text;html=1;strokeColor=none;fillColor=none;align=center;verticalAlign=middle;whiteSpace=wrap;rounded=0;" vertex="1" parent="1">
          <mxGeometry x="250" y="183" width="60" height="30" as="geometry" />
        </mxCell>
        <mxCell id="xguzesm__UQEx_N3slbm-35" value="07" style="text;html=1;strokeColor=none;fillColor=none;align=center;verticalAlign=middle;whiteSpace=wrap;rounded=0;" vertex="1" parent="1">
          <mxGeometry x="250" y="205" width="60" height="30" as="geometry" />
        </mxCell>
        <mxCell id="xguzesm__UQEx_N3slbm-36" value="08" style="text;html=1;strokeColor=none;fillColor=none;align=center;verticalAlign=middle;whiteSpace=wrap;rounded=0;" vertex="1" parent="1">
          <mxGeometry x="250" y="230" width="60" height="30" as="geometry" />
        </mxCell>
        <mxCell id="xguzesm__UQEx_N3slbm-37" value="09" style="text;html=1;strokeColor=none;fillColor=none;align=center;verticalAlign=middle;whiteSpace=wrap;rounded=0;" vertex="1" parent="1">
          <mxGeometry x="250" y="254" width="60" height="30" as="geometry" />
        </mxCell>
        <mxCell id="xguzesm__UQEx_N3slbm-38" value="10" style="text;html=1;strokeColor=none;fillColor=none;align=center;verticalAlign=middle;whiteSpace=wrap;rounded=0;" vertex="1" parent="1">
          <mxGeometry x="250" y="279" width="60" height="30" as="geometry" />
        </mxCell>
        <mxCell id="xguzesm__UQEx_N3slbm-39" value="11" style="text;html=1;strokeColor=none;fillColor=none;align=center;verticalAlign=middle;whiteSpace=wrap;rounded=0;" vertex="1" parent="1">
          <mxGeometry x="250" y="305" width="60" height="30" as="geometry" />
        </mxCell>
        <mxCell id="xguzesm__UQEx_N3slbm-45" value="" style="endArrow=none;html=1;rounded=0;" edge="1" parent="1">
          <mxGeometry width="50" height="50" relative="1" as="geometry">
            <mxPoint x="342.33" y="672" as="sourcePoint" />
            <mxPoint x="342.33" y="622" as="targetPoint" />
            <Array as="points">
              <mxPoint x="342.33" y="652" />
            </Array>
          </mxGeometry>
        </mxCell>
        <mxCell id="xguzesm__UQEx_N3slbm-46" value="res ed55" style="rounded=1;whiteSpace=wrap;html=1;" vertex="1" parent="1">
          <mxGeometry x="296.25" y="671" width="92.5" height="20" as="geometry" />
        </mxCell>
        <mxCell id="xguzesm__UQEx_N3slbm-66" style="edgeStyle=orthogonalEdgeStyle;rounded=0;orthogonalLoop=1;jettySize=auto;html=1;exitX=1;exitY=0.5;exitDx=0;exitDy=0;entryX=0.5;entryY=0;entryDx=0;entryDy=0;" edge="1" parent="1" source="xguzesm__UQEx_N3slbm-47" target="xguzesm__UQEx_N3slbm-59">
          <mxGeometry relative="1" as="geometry" />
        </mxCell>
        <mxCell id="xguzesm__UQEx_N3slbm-47" value="JN" style="rhombus;whiteSpace=wrap;html=1;" vertex="1" parent="1">
          <mxGeometry x="308.5" y="691" width="72.5" height="41" as="geometry" />
        </mxCell>
        <mxCell id="xguzesm__UQEx_N3slbm-48" value="" style="endArrow=none;html=1;rounded=0;" edge="1" parent="1">
          <mxGeometry width="50" height="50" relative="1" as="geometry">
            <mxPoint x="345" y="761" as="sourcePoint" />
            <mxPoint x="344.65999999999997" y="732" as="targetPoint" />
            <Array as="points">
              <mxPoint x="345" y="880" />
            </Array>
          </mxGeometry>
        </mxCell>
        <mxCell id="xguzesm__UQEx_N3slbm-81" style="edgeStyle=orthogonalEdgeStyle;rounded=0;orthogonalLoop=1;jettySize=auto;html=1;exitX=1;exitY=0.5;exitDx=0;exitDy=0;" edge="1" parent="1" source="xguzesm__UQEx_N3slbm-50">
          <mxGeometry relative="1" as="geometry">
            <mxPoint x="520" y="640" as="targetPoint" />
          </mxGeometry>
        </mxCell>
        <mxCell id="xguzesm__UQEx_N3slbm-50" value="JI 11" style="shape=step;perimeter=stepPerimeter;whiteSpace=wrap;html=1;fixedSize=1;" vertex="1" parent="1">
          <mxGeometry x="310" y="980" width="80" height="20" as="geometry" />
        </mxCell>
        <mxCell id="xguzesm__UQEx_N3slbm-67" style="edgeStyle=orthogonalEdgeStyle;rounded=0;orthogonalLoop=1;jettySize=auto;html=1;exitX=1;exitY=0.5;exitDx=0;exitDy=0;entryX=0.5;entryY=0;entryDx=0;entryDy=0;" edge="1" parent="1" source="xguzesm__UQEx_N3slbm-52">
          <mxGeometry relative="1" as="geometry">
            <mxPoint x="422.5" y="930" as="targetPoint" />
          </mxGeometry>
        </mxCell>
        <mxCell id="xguzesm__UQEx_N3slbm-52" value="JZ" style="rhombus;whiteSpace=wrap;html=1;" vertex="1" parent="1">
          <mxGeometry x="307.5" y="877.5" width="75" height="41" as="geometry" />
        </mxCell>
        <mxCell id="xguzesm__UQEx_N3slbm-55" value="car cont" style="rounded=1;whiteSpace=wrap;html=1;" vertex="1" parent="1">
          <mxGeometry x="400" y="790" width="61.25" height="20" as="geometry" />
        </mxCell>
        <mxCell id="xguzesm__UQEx_N3slbm-57" value="sum uno" style="rounded=1;whiteSpace=wrap;html=1;" vertex="1" parent="1">
          <mxGeometry x="400" y="810" width="61.25" height="20" as="geometry" />
        </mxCell>
        <mxCell id="xguzesm__UQEx_N3slbm-58" value="alm cont" style="rounded=1;whiteSpace=wrap;html=1;" vertex="1" parent="1">
          <mxGeometry x="400" y="830" width="61.25" height="20" as="geometry" />
        </mxCell>
        <mxCell id="xguzesm__UQEx_N3slbm-59" value="car acu" style="rounded=1;whiteSpace=wrap;html=1;" vertex="1" parent="1">
          <mxGeometry x="400" y="731" width="61.25" height="20" as="geometry" />
        </mxCell>
        <mxCell id="xguzesm__UQEx_N3slbm-60" value="sum edad" style="rounded=1;whiteSpace=wrap;html=1;" vertex="1" parent="1">
          <mxGeometry x="400" y="751" width="61.25" height="20" as="geometry" />
        </mxCell>
        <mxCell id="xguzesm__UQEx_N3slbm-61" value="mul uno" style="rounded=1;whiteSpace=wrap;html=1;" vertex="1" parent="1">
          <mxGeometry x="307.5" y="350" width="70" height="20" as="geometry" />
        </mxCell>
        <mxCell id="xguzesm__UQEx_N3slbm-63" value="alm edad" style="rounded=1;whiteSpace=wrap;html=1;" vertex="1" parent="1">
          <mxGeometry x="307.5" y="330" width="70" height="20" as="geometry" />
        </mxCell>
        <mxCell id="xguzesm__UQEx_N3slbm-64" value="alm acu" style="rounded=1;whiteSpace=wrap;html=1;" vertex="1" parent="1">
          <mxGeometry x="400" y="770" width="61.25" height="20" as="geometry" />
        </mxCell>
        <mxCell id="xguzesm__UQEx_N3slbm-68" value="12" style="text;html=1;strokeColor=none;fillColor=none;align=center;verticalAlign=middle;whiteSpace=wrap;rounded=0;" vertex="1" parent="1">
          <mxGeometry x="248.5" y="325" width="60" height="30" as="geometry" />
        </mxCell>
        <mxCell id="xguzesm__UQEx_N3slbm-69" value="13" style="text;html=1;strokeColor=none;fillColor=none;align=center;verticalAlign=middle;whiteSpace=wrap;rounded=0;" vertex="1" parent="1">
          <mxGeometry x="247.5" y="345" width="60" height="30" as="geometry" />
        </mxCell>
        <mxCell id="xguzesm__UQEx_N3slbm-70" value="14" style="text;html=1;strokeColor=none;fillColor=none;align=center;verticalAlign=middle;whiteSpace=wrap;rounded=0;" vertex="1" parent="1">
          <mxGeometry x="248.5" y="375.5" width="60" height="30" as="geometry" />
        </mxCell>
        <mxCell id="xguzesm__UQEx_N3slbm-71" value="15" style="text;html=1;strokeColor=none;fillColor=none;align=center;verticalAlign=middle;whiteSpace=wrap;rounded=0;" vertex="1" parent="1">
          <mxGeometry x="245" y="555" width="60" height="30" as="geometry" />
        </mxCell>
        <mxCell id="xguzesm__UQEx_N3slbm-72" value="16" style="text;html=1;strokeColor=none;fillColor=none;align=center;verticalAlign=middle;whiteSpace=wrap;rounded=0;" vertex="1" parent="1">
          <mxGeometry x="245" y="585" width="60" height="30" as="geometry" />
        </mxCell>
        <mxCell id="xguzesm__UQEx_N3slbm-73" value="17" style="text;html=1;strokeColor=none;fillColor=none;align=center;verticalAlign=middle;whiteSpace=wrap;rounded=0;" vertex="1" parent="1">
          <mxGeometry x="245" y="666" width="60" height="30" as="geometry" />
        </mxCell>
        <mxCell id="xguzesm__UQEx_N3slbm-74" value="18" style="text;html=1;strokeColor=none;fillColor=none;align=center;verticalAlign=middle;whiteSpace=wrap;rounded=0;" vertex="1" parent="1">
          <mxGeometry x="245" y="696" width="60" height="30" as="geometry" />
        </mxCell>
        <mxCell id="xguzesm__UQEx_N3slbm-75" value="19" style="text;html=1;strokeColor=none;fillColor=none;align=center;verticalAlign=middle;whiteSpace=wrap;rounded=0;" vertex="1" parent="1">
          <mxGeometry x="245" y="883" width="60" height="30" as="geometry" />
        </mxCell>
        <mxCell id="xguzesm__UQEx_N3slbm-79" style="edgeStyle=orthogonalEdgeStyle;rounded=0;orthogonalLoop=1;jettySize=auto;html=1;exitX=1;exitY=0.5;exitDx=0;exitDy=0;entryX=1;entryY=0.25;entryDx=0;entryDy=0;" edge="1" parent="1" source="xguzesm__UQEx_N3slbm-77" target="xguzesm__UQEx_N3slbm-59">
          <mxGeometry relative="1" as="geometry">
            <Array as="points">
              <mxPoint x="500" y="940" />
              <mxPoint x="500" y="736" />
            </Array>
          </mxGeometry>
        </mxCell>
        <mxCell id="xguzesm__UQEx_N3slbm-77" value="JI 28" style="shape=step;perimeter=stepPerimeter;whiteSpace=wrap;html=1;fixedSize=1;" vertex="1" parent="1">
          <mxGeometry x="382.5" y="930" width="80" height="20" as="geometry" />
        </mxCell>
        <mxCell id="xguzesm__UQEx_N3slbm-80" value="" style="endArrow=none;html=1;rounded=0;exitX=0.431;exitY=-0.09;exitDx=0;exitDy=0;exitPerimeter=0;entryX=0.5;entryY=1;entryDx=0;entryDy=0;" edge="1" parent="1" source="xguzesm__UQEx_N3slbm-50" target="xguzesm__UQEx_N3slbm-52">
          <mxGeometry width="50" height="50" relative="1" as="geometry">
            <mxPoint x="297" y="968" as="sourcePoint" />
            <mxPoint x="347" y="918" as="targetPoint" />
          </mxGeometry>
        </mxCell>
        <mxCell id="xguzesm__UQEx_N3slbm-83" style="edgeStyle=orthogonalEdgeStyle;rounded=0;orthogonalLoop=1;jettySize=auto;html=1;exitX=1;exitY=0.5;exitDx=0;exitDy=0;" edge="1" parent="1" source="xguzesm__UQEx_N3slbm-82">
          <mxGeometry relative="1" as="geometry">
            <mxPoint x="520" y="867.1724137931035" as="targetPoint" />
          </mxGeometry>
        </mxCell>
        <mxCell id="xguzesm__UQEx_N3slbm-82" value="JI 11" style="shape=step;perimeter=stepPerimeter;whiteSpace=wrap;html=1;fixedSize=1;" vertex="1" parent="1">
          <mxGeometry x="390.62" y="857.5" width="79.38" height="20" as="geometry" />
        </mxCell>
        <mxCell id="xguzesm__UQEx_N3slbm-84" value="20" style="text;html=1;strokeColor=none;fillColor=none;align=center;verticalAlign=middle;whiteSpace=wrap;rounded=0;" vertex="1" parent="1">
          <mxGeometry x="250" y="975" width="60" height="30" as="geometry" />
        </mxCell>
        <mxCell id="xguzesm__UQEx_N3slbm-85" value="21" style="text;html=1;strokeColor=none;fillColor=none;align=center;verticalAlign=middle;whiteSpace=wrap;rounded=0;" vertex="1" parent="1">
          <mxGeometry x="354" y="413" width="60" height="30" as="geometry" />
        </mxCell>
        <mxCell id="xguzesm__UQEx_N3slbm-86" value="22" style="text;html=1;strokeColor=none;fillColor=none;align=center;verticalAlign=middle;whiteSpace=wrap;rounded=0;" vertex="1" parent="1">
          <mxGeometry x="354" y="432" width="60" height="30" as="geometry" />
        </mxCell>
        <mxCell id="xguzesm__UQEx_N3slbm-87" value="23" style="text;html=1;strokeColor=none;fillColor=none;align=center;verticalAlign=middle;whiteSpace=wrap;rounded=0;" vertex="1" parent="1">
          <mxGeometry x="354" y="457" width="60" height="30" as="geometry" />
        </mxCell>
        <mxCell id="xguzesm__UQEx_N3slbm-88" value="24" style="text;html=1;strokeColor=none;fillColor=none;align=center;verticalAlign=middle;whiteSpace=wrap;rounded=0;" vertex="1" parent="1">
          <mxGeometry x="354" y="479" width="60" height="30" as="geometry" />
        </mxCell>
        <mxCell id="xguzesm__UQEx_N3slbm-89" value="25" style="text;html=1;strokeColor=none;fillColor=none;align=center;verticalAlign=middle;whiteSpace=wrap;rounded=0;" vertex="1" parent="1">
          <mxGeometry x="340" y="503.5" width="60" height="30" as="geometry" />
        </mxCell>
        <mxCell id="xguzesm__UQEx_N3slbm-90" value="26" style="text;html=1;strokeColor=none;fillColor=none;align=center;verticalAlign=middle;whiteSpace=wrap;rounded=0;" vertex="1" parent="1">
          <mxGeometry x="342.5" y="531" width="60" height="30" as="geometry" />
        </mxCell>
        <mxCell id="xguzesm__UQEx_N3slbm-91" value="27" style="text;html=1;strokeColor=none;fillColor=none;align=center;verticalAlign=middle;whiteSpace=wrap;rounded=0;" vertex="1" parent="1">
          <mxGeometry x="354" y="626" width="60" height="30" as="geometry" />
        </mxCell>
        <mxCell id="xguzesm__UQEx_N3slbm-92" value="28" style="text;html=1;strokeColor=none;fillColor=none;align=center;verticalAlign=middle;whiteSpace=wrap;rounded=0;" vertex="1" parent="1">
          <mxGeometry x="354" y="726" width="60" height="30" as="geometry" />
        </mxCell>
        <mxCell id="xguzesm__UQEx_N3slbm-93" value="29" style="text;html=1;strokeColor=none;fillColor=none;align=center;verticalAlign=middle;whiteSpace=wrap;rounded=0;" vertex="1" parent="1">
          <mxGeometry x="354" y="746" width="60" height="30" as="geometry" />
        </mxCell>
        <mxCell id="xguzesm__UQEx_N3slbm-95" value="30" style="text;html=1;strokeColor=none;fillColor=none;align=center;verticalAlign=middle;whiteSpace=wrap;rounded=0;" vertex="1" parent="1">
          <mxGeometry x="354" y="765" width="60" height="30" as="geometry" />
        </mxCell>
        <mxCell id="xguzesm__UQEx_N3slbm-96" value="31" style="text;html=1;strokeColor=none;fillColor=none;align=center;verticalAlign=middle;whiteSpace=wrap;rounded=0;" vertex="1" parent="1">
          <mxGeometry x="354" y="785" width="60" height="30" as="geometry" />
        </mxCell>
        <mxCell id="xguzesm__UQEx_N3slbm-97" value="32" style="text;html=1;strokeColor=none;fillColor=none;align=center;verticalAlign=middle;whiteSpace=wrap;rounded=0;" vertex="1" parent="1">
          <mxGeometry x="354" y="805" width="60" height="30" as="geometry" />
        </mxCell>
        <mxCell id="xguzesm__UQEx_N3slbm-98" value="33" style="text;html=1;strokeColor=none;fillColor=none;align=center;verticalAlign=middle;whiteSpace=wrap;rounded=0;" vertex="1" parent="1">
          <mxGeometry x="354" y="825" width="60" height="30" as="geometry" />
        </mxCell>
        <mxCell id="xguzesm__UQEx_N3slbm-99" value="34" style="text;html=1;strokeColor=none;fillColor=none;align=center;verticalAlign=middle;whiteSpace=wrap;rounded=0;" vertex="1" parent="1">
          <mxGeometry x="354" y="853" width="60" height="30" as="geometry" />
        </mxCell>
        <mxCell id="xguzesm__UQEx_N3slbm-100" value="35" style="text;html=1;strokeColor=none;fillColor=none;align=center;verticalAlign=middle;whiteSpace=wrap;rounded=0;" vertex="1" parent="1">
          <mxGeometry x="340" y="925" width="60" height="30" as="geometry" />
        </mxCell>
      </root>
    </mxGraphModel>
  </diagram>
</mxfile>
